<svg xmlns="http://www.w3.org/2000/svg" viewBox="0 0 800 600" fill="none">
  <defs>
    <linearGradient id="cloudGrad" x1="0%" y1="0%" x2="100%" y2="100%">
      <stop offset="0%" style="stop-color:#4facfe;stop-opacity:1" />
      <stop offset="100%" style="stop-color:#00f2fe;stop-opacity:1" />
    </linearGradient>
  </defs>

  <rect width="800" height="600" fill="url(#cloudGrad)"/>

  <!-- Browser window -->
  <rect x="50" y="80" width="700" height="450" rx="8" fill="#fff" opacity="0.95"/>

  <!-- Browser header -->
  <rect x="50" y="80" width="700" height="35" rx="8" fill="#2d3748"/>
  <circle cx="70" cy="97" r="5" fill="#fc8181"/>
  <circle cx="90" cy="97" r="5" fill="#f6ad55"/>
  <circle cx="110" cy="97" r="5" fill="#68d391"/>
  <rect x="140" y="90" width="500" height="15" rx="7" fill="#4a5568"/>

  <!-- Sidebar -->
  <rect x="60" y="125" width="120" height="390" fill="#f7fafc"/>
  <rect x="70" y="140" width="100" height="30" rx="4" fill="#4facfe" opacity="0.8"/>
  <rect x="70" y="180" width="100" height="25" rx="4" fill="#e2e8f0"/>
  <rect x="70" y="215" width="100" height="25" rx="4" fill="#e2e8f0"/>
  <rect x="70" y="250" width="100" height="25" rx="4" fill="#e2e8f0"/>

  <!-- Main content area -->
  <!-- Server cards -->
  <g>
    <rect x="200" y="135" width="180" height="100" rx="6" fill="#e6fffa"/>
    <circle cx="230" cy="165" r="12" fill="#38b2ac"/>
    <rect x="250" y="155" width="100" height="8" rx="3" fill="#4a5568"/>
    <rect x="250" y="170" width="80" height="6" rx="3" fill="#cbd5e0"/>
    <rect x="210" y="195" width="50" height="25" rx="4" fill="#38b2ac"/>
    <text x="218" y="211" font-family="Arial" font-size="10" fill="#fff">Active</text>

    <rect x="400" y="135" width="180" height="100" rx="6" fill="#fef5e7"/>
    <circle cx="430" cy="165" r="12" fill="#ed8936"/>
    <rect x="450" y="155" width="100" height="8" rx="3" fill="#4a5568"/>
    <rect x="450" y="170" width="80" height="6" rx="3" fill="#cbd5e0"/>
    <rect x="410" y="195" width="50" height="25" rx="4" fill="#ed8936"/>
    <text x="415" y="211" font-family="Arial" font-size="10" fill="#fff">Warning</text>

    <rect x="600" y="135" width="140" height="100" rx="6" fill="#e6ffed"/>
    <circle cx="625" cy="165" r="12" fill="#48bb78"/>
    <rect x="645" y="155" width="80" height="8" rx="3" fill="#4a5568"/>
    <rect x="645" y="170" width="60" height="6" rx="3" fill="#cbd5e0"/>
    <rect x="610" y="195" width="45" height="25" rx="4" fill="#48bb78"/>
    <text x="620" y="211" font-family="Arial" font-size="10" fill="#fff">OK</text>
  </g>

  <!-- Metrics -->
  <rect x="200" y="260" width="540" height="120" rx="6" fill="#f7fafc"/>
  <text x="220" y="285" font-family="Arial" font-size="12" font-weight="bold" fill="#2d3748">Performance Metrics</text>

  <!-- Line graph -->
  <polyline points="220,340 260,310 300,325 340,295 380,315 420,285 460,300 500,280 540,290 580,270 620,285 660,265 700,275"
            stroke="#4facfe" stroke-width="3" fill="none"/>
  <polyline points="220,360 260,340 300,355 340,330 380,345 420,320 460,335 500,315 540,325 580,305 620,320 660,300 700,310"
            stroke="#00f2fe" stroke-width="2" fill="none" opacity="0.5"/>

  <!-- Cost info -->
  <rect x="200" y="400" width="250" height="100" rx="6" fill="#e6f7ff"/>
  <text x="220" y="425" font-family="Arial" font-size="14" font-weight="bold" fill="#2d3748">Monthly Cost</text>
  <text x="220" y="455" font-family="Arial" font-size="24" font-weight="bold" fill="#4facfe">$2,450</text>
  <text x="220" y="480" font-family="Arial" font-size="11" fill="#68d391">↓ 40% savings</text>

  <!-- Uptime -->
  <rect x="470" y="400" width="270" height="100" rx="6" fill="#f0fff4"/>
  <text x="490" y="425" font-family="Arial" font-size="14" font-weight="bold" fill="#2d3748">Uptime</text>
  <text x="490" y="460" font-family="Arial" font-size="28" font-weight="bold" fill="#38b2ac">99.99%</text>

  <!-- Cloud icons -->
  <g opacity="0.2" fill="#fff">
    <path d="M 100 200 Q 80 180 100 165 Q 130 165 140 180 Q 160 180 160 200 Q 160 215 140 215 L 100 215 Q 80 215 80 200 Z"/>
    <path d="M 120 500 Q 100 485 115 472 Q 135 472 145 485 Q 165 485 165 500 Q 165 512 145 512 L 115 512 Q 95 512 95 500 Z"/>
  </g>
</svg>
