<svg xmlns="http://www.w3.org/2000/svg" viewBox="0 0 24 24" width="24" height="24">
  <path fill="#232F3E" d="M11.95 24A16.14 16.14 0 0 1 .4 17.65a.65.65 0 0 1 .23-.88.63.63 0 0 1 .84.21A14.65 14.65 0 0 0 12.01 22.5c4.78 0 8.76-1.57 10.9-4.52a.68.68 0 0 1 .91-.19.64.64 0 0 1 .19.89 16.32 16.32 0 0 1-12.06 5.32zm9.1-3.66c-.34.34-1.2.14-1.63-.33s-.34-1.54 0-1.89 1.12-.41 1.54.06.43 1.82.09 2.16zM15.53 4.29v5c0 3.32-2.16 4.67-4.14 4.67-2.3 0-3.62-1.59-3.62-3.8 0-2.31 1.62-4.13 3.99-4.13a3.53 3.53 0 0 1 2.38 1.05v-2.8H15.53zM18.8 9.94c0 3.3-.82 4.09-2.58 4.09-1.53 0-2.3-1.07-2.3-2.6 0-1.12.39-2.47 1.41-3.14a3.17 3.17 0 0 1 1.77-.55c1.45 0 1.7.99 1.7 2.2zm-12.7.2v3.7H4.42V4.54h1.68v9.11h1.34c2.81 0 4.19-1.85 4.19-4.7s-1.38-4.7-4.19-4.7H4.42V1.52h3.02c4.13 0 6.07 2.68 6.07 6.42 0 3.74-1.94 6.42-6.07 6.42H6.1v-4.22h1.34c1.19 0 1.7-.66 1.7-1.74s-.51-1.74-1.7-1.74zM13.2 8.52a2 2 0 0 0-1.29-.44c-1.29 0-1.87.97-1.87 2.13 0 1.01.5 1.73 1.45 1.73a2 2 0 0 0 1.71-1.09V8.52zM17.43 9.4c0-1.16.29-1.67 1.14-1.67.63 0 .89.37.89 1.4v2.75c-.38.16-.88.25-1.39.25-1.15 0-1.64-.67-1.64-1.85v-.88zm-3.89 8.2l3.44-8.03h1.35v9.11h-1.61v-6.31h-.04l-2.67 6.31h-1z"/>
</svg>
